<?xml version="1.0" encoding="iso-8859-1"?>
<!-- Generator: Adobe Illustrator 16.0.0, SVG Export Plug-In . SVG Version: 6.00 Build 0)  -->
<!DOCTYPE svg PUBLIC "-//W3C//DTD SVG 1.1//EN" "http://www.w3.org/Graphics/SVG/1.1/DTD/svg11.dtd">
<svg version="1.1" id="Layer_4" xmlns="http://www.w3.org/2000/svg" xmlns:xlink="http://www.w3.org/1999/xlink" x="0px" y="0px"
	 width="400px" height="400px" viewBox="0 0 400 400" style="enable-background:new 0 0 400 400;" xml:space="preserve">
<g>
	<circle style="fill:#FFFFFF;stroke:#000000;stroke-width:10;stroke-miterlimit:10;" cx="133.656" cy="273.536" r="66.772"/>
	<circle style="fill:#FFFFFF;stroke:#000000;stroke-width:10;stroke-miterlimit:10;" cx="133.656" cy="273.536" r="44.301"/>
	<polyline style="fill:#FFFFFF;stroke:#000000;stroke-width:10;stroke-miterlimit:10;" points="37.563,173.574 350.023,42.591 
		350.023,358.884 37.563,227.899 	"/>
	<path style="fill:#FFFFFF;stroke:#000000;stroke-width:10;stroke-miterlimit:10;" d="M35.853,231.671
		c0,5.987-6.036,10.842-13.483,10.842l0,0c-7.447,0-13.482-4.854-13.482-10.842V166.62c0-5.988,6.035-10.839,13.482-10.839l0,0
		c7.447,0,13.483,4.851,13.483,10.839V231.671z"/>
	<g>
		<polygon style="fill:#FF9933;" points="190.924,204.973 258.934,92.136 258.934,174.061 		"/>
		<polygon style="fill:#CC6600;" points="258.934,92.136 258.934,174.061 326.947,204.973 		"/>
		<polyline style="fill:#343535;" points="258.934,173.627 258.934,244.731 190.924,204.542 		"/>
		<polyline style="fill:#131313;" points="258.934,173.627 258.934,244.731 326.947,204.542 		"/>
		<polyline style="fill:#828384;" points="190.924,213.816 258.934,254.003 258.934,309.65 		"/>
		<polyline style="fill:#2F3030;" points="258.934,254.003 258.934,309.65 326.966,213.816 		"/>
	</g>
	<path style="fill:#FFFFFF;stroke:#000000;stroke-width:10;stroke-miterlimit:10;" d="M391.113,366.603
		c0,12.694-10.202,22.98-22.79,22.98l0,0c-12.593,0-22.795-10.286-22.795-22.98V33.397c0-12.69,10.202-22.98,22.795-22.98l0,0
		c12.588,0,22.79,10.29,22.79,22.98V366.603z"/>
	
		<line style="fill:none;stroke:#000000;stroke-width:10;stroke-miterlimit:10;" x1="170.81" y1="118.879" x2="170.81" y2="281.333"/>
</g>
</svg>
